<!-- Generator: Adobe Illustrator 17.0.0, SVG Export Plug-In  -->
<svg version="1.1"
	 xmlns="http://www.w3.org/2000/svg" xmlns:xlink="http://www.w3.org/1999/xlink" xmlns:a="http://ns.adobe.com/AdobeSVGViewerExtensions/3.0/"
	 x="0px" y="0px" width="967.049px" height="967.049px" viewBox="0 0 967.049 967.049" enable-background="new 0 0 967.049 967.049"
	 xml:space="preserve">
<defs>
</defs>
<g>
	<path fill="#CCCCCC" d="M721.344,639.293L285.284,823.572l-39.549-122.705L564.16,576.641L251.743,448.169l40.037-98.219
		L721.344,513.91V639.293z"/>
</g>
<g>
	<path fill="#0071BC" d="M248.023,326.112l436.061-184.2l39.549,122.737L405.207,388.844l318.426,124.225l-39.549,122.705
		L248.023,451.496V326.112z"/>
</g>
<polygon fill="#3FA9F5" points="684.116,635.768 248.034,451.535 248.052,326.115 723.648,513.066 "/>
<polygon fill="#0071BC" points="287.555,822.413 723.637,638.18 723.619,512.76 248.023,699.711 "/>
<path fill="#3FA9F5" d="M483.525,0C217.458,0,0,217.458,0,483.525s217.458,483.525,483.525,483.525s483.525-217.458,483.525-483.525
	S749.591,0,483.525,0z M483.525,880.066c-220.016,0-396.541-176.525-396.541-396.542S263.508,86.983,483.525,86.983
	s396.541,176.525,396.541,396.542C880.066,700.983,700.983,880.066,483.525,880.066z"/>
</svg>
